<svg xmlns="http://www.w3.org/2000/svg" xmlns:se="http://svg-edit.googlecode.com" xmlns:xlink="http://www.w3.org/1999/xlink" xmlns:dc="http://purl.org/dc/elements/1.1/" xmlns:cc="http://creativecommons.org/ns#" xmlns:rdf="http://www.w3.org/1999/02/22-rdf-syntax-ns#" xmlns:inkscape="http://www.inkscape.org/namespaces/inkscape" width="255.71428571428578" height="154.71428571428567" style="">                                    <title>my vector image</title>                                    <!-- Created with Vector Paint - http://www.vectorpaint.yaks.com/ https://chrome.google.com/webstore/detail/hnbpdiengicdefcjecjbnjnoifekhgdo -->                                    <rect id="backgroundrect" width="0%" height="100%" x="0" y="0" fill="#FFFFFF" stroke="none" class="" style=""/>                                <g class="currentLayer" style=""><title>Layer 1</title><path fill="#ffffff" fill-opacity="1" stroke="#000000" stroke-opacity="1" stroke-width="2" stroke-dasharray="none" stroke-linejoin="round" stroke-linecap="butt" stroke-dashoffset="" fill-rule="nonzero" opacity="1" marker-start="" marker-mid="" marker-end="" d="M94.42057563535933,129.24694020303247 C94.42057563535933,123.86656794715452 120.04840140915954,119.5084664198933 151.68769248792523,119.5084664198933 C183.32698356669098,119.5084664198933 208.9548093404912,123.86656794715452 208.9548093404912,129.24694020303247 C208.9548093404912,134.6273124589104 183.32698356669098,138.98541398617158 151.68769248792523,138.98541398617158 C120.04840140915954,138.98541398617158 94.42057563535933,134.6273124589104 94.42057563535933,129.24694020303247 z" id="svg_46" class="selected"/><path fill="none" fill-opacity="1" stroke="#000000" stroke-opacity="1" stroke-width="2" stroke-dasharray="none" stroke-linejoin="round" stroke-linecap="butt" stroke-dashoffset="" fill-rule="nonzero" opacity="1" marker-start="" marker-mid="" marker-end="" id="svg_66" d="M95.305314462319,134.83919944082334 C162.60056769995052,146.8865038457447 199.2153135835345,135.2802290888484 204.32564140916804,134.6186846168107 " style="color: rgb(0, 0, 0);" class="selected"/><path fill="none" fill-opacity="1" stroke="#000000" stroke-opacity="1" stroke-width="2" stroke-dasharray="none" stroke-linejoin="round" stroke-linecap="butt" stroke-dashoffset="" fill-rule="nonzero" opacity="1" marker-start="" marker-mid="" marker-end="" d="M94.78117816317696,136.13881749933694 C162.0764314008085,148.1861219042584 198.69117728439247,136.5798471473621 203.80150511002603,135.9183026753244 " style="color: rgb(0, 99, 0);" class="selected" id="svg_68"/><path fill="none" fill-opacity="1" stroke="#000000" stroke-opacity="1" stroke-width="2" stroke-dasharray="none" stroke-linejoin="round" stroke-linecap="butt" stroke-dashoffset="" fill-rule="nonzero" opacity="1" marker-start="" marker-mid="" marker-end="" d="M89.01567939980917,136.13881749933694 C167.31112011410423,148.1861219042584 209.9109696974628,136.5798471473621 215.85663971210144,135.9183026753244 " style="color: rgb(0, 0, 0);" class="selected" id="svg_69"/><path fill="#000000" fill-opacity="1" stroke="#000000" stroke-opacity="1" stroke-width="2" stroke-dasharray="none" stroke-linejoin="round" stroke-linecap="butt" stroke-dashoffset="" fill-rule="nonzero" opacity="1" marker-start="" marker-mid="" marker-end="" d="M123.43675536469075,128.92559584093067 C123.43675536469075,126.16318130322821 140.69004640951087,125.65844578189012 152.09651891656912,125.65845115364561 C163.5029914236274,125.65845115364561 181.80455922954496,126.16318130322821 181.80455922954496,128.92559584093067 C181.80455922954496,131.68800500687746 168.74435573124893,133.925561427027 152.62065404747358,133.925561427027 C136.4969523636982,133.925561427027 123.43675536469075,131.68800500687746 123.43675536469075,128.92559584093067 z" id="svg_11" class="selected"/><path fill="#000000" fill-opacity="1" stroke="#000000" stroke-opacity="1" stroke-width="2" stroke-dasharray="none" stroke-linejoin="round" stroke-linecap="butt" stroke-dashoffset="" fill-rule="nonzero" opacity="1" marker-start="" marker-mid="" marker-end="" d="M152.32713967402478,127.15021989481176 C152.32713967402478,126.8534378213406 155.23566110145663,126.61304434182904 158.8264282958169,126.61304434182904 C162.4171954901772,126.61304434182904 165.32571691760904,126.8534378213406 165.32571691760904,127.15021989481176 C165.32571691760904,127.4470019682829 162.4171954901772,127.68739544779447 158.8264282958169,127.68739544779447 C155.23566110145663,127.68739544779447 152.32713967402478,127.4470019682829 152.32713967402478,127.15021989481176 z" id="svg_13" class="selected"/><path fill="none" fill-opacity="1" stroke="#000000" stroke-opacity="1" stroke-width="2" stroke-dasharray="none" stroke-linejoin="round" stroke-linecap="butt" stroke-dashoffset="" fill-rule="nonzero" opacity="1" marker-start="" marker-mid="" marker-end="" id="svg_25" d="M181.2636457300318,127.68739541054231 C175.97502956766704,124.21959521699478 164.9234619547211,124.06083292360387 163.98973303249264,124.39051967912121 " style="color: rgb(0, 0, 0);" class="selected"/><path fill="none" fill-opacity="1" stroke="#000000" stroke-opacity="1" stroke-width="2" stroke-dasharray="none" stroke-linejoin="round" stroke-linecap="butt" stroke-dashoffset="" fill-rule="nonzero" opacity="1" marker-start="" marker-mid="" marker-end="" d="M135.94405218027828,131.360335546349 C133.51877302913485,126.06794890227656 123.30073085871555,116.63520720418512 124.8648917540157,123.72763481719085 " style="color: rgb(0, 0, 0);" class="selected" id="svg_27"/><path fill="#ffffff" fill-opacity="1" stroke="#ffffff" stroke-opacity="1" stroke-width="2" stroke-dasharray="none" stroke-linejoin="round" stroke-linecap="butt" stroke-dashoffset="" fill-rule="nonzero" opacity="1" marker-start="" marker-mid="" marker-end="" d="M122.70715172329702,103.1263432268849 C122.70715172329702,88.89037456600329 136.78064631203944,77.35924596705536 154.15532457044867,77.35924596705536 C171.5300093281466,77.35924596705536 185.6034974176004,88.89037456600329 185.6034974176004,103.1263432268849 C185.6034974176004,117.36231188776662 169.45023696917312,129.75292137148676 152.07555221147524,129.75292137148676 C134.70087395306598,129.75292137148676 122.70715172329702,117.36231188776662 122.70715172329702,103.1263432268849 z" id="svg_30" class="selected"/><path fill="#000000" fill-opacity="1" stroke="#000000" stroke-opacity="1" stroke-width="2" stroke-dasharray="none" stroke-linejoin="round" stroke-linecap="butt" stroke-dashoffset="" fill-rule="nonzero" opacity="1" marker-start="" marker-mid="" marker-end="" d="M110.05041107664204,97.32165970340543 C109.75451711096866,94.63468321470413 119.99087069843779,129.23362216913517 150.3043843855907,131.16744562700205 C180.61789807274346,133.101269084869 199.29992616221256,89.54653464902685 194.66903838133013,97.28672605028709 C190.03816212436897,105.02691305516515 174.69795597736123,130.19603859724884 151.65101221098573,129.71564151571158 C128.60406844461022,129.2352488305566 110.34630504231532,100.0086361921069 110.05041107664204,97.32165970340543 z" id="svg_43" class="selected"/><path fill="#000000" fill-opacity="1" stroke="#000000" stroke-opacity="1" stroke-width="2" stroke-dasharray="none" stroke-linejoin="round" stroke-linecap="butt" stroke-dashoffset="" fill-rule="nonzero" opacity="1" marker-start="" marker-mid="" marker-end="" id="svg_80" d="M95.06289498572252,63.33660561815941 L100.1432044179667,80.41592277442555 L105.1497767742004,90.37673199018064 L109.35556834554086,99.71574061622971 L115.22555939547775,108.27755548416076 " style="color: rgb(0, 0, 0);" class="selected"/><path fill="none" fill-opacity="1" stroke="#000000" stroke-opacity="1" stroke-width="2" stroke-dasharray="none" stroke-linejoin="round" stroke-linecap="butt" stroke-dashoffset="" fill-rule="nonzero" opacity="1" marker-start="" marker-mid="" marker-end="" id="svg_90" d="M195.49575893978897,92.7565042452249 C207.68199372039595,85.46125443029484 221.1075066142851,80.31166632563838 223.58606284084925,73.23098268173584 C226.0646190674133,66.15029903783318 207.06235466375486,70.01249011632552 204.5837984371908,70.87075480043495 C202.10524221062659,71.72901948454432 197.14812975749837,73.23098268173584 197.04485658139154,73.23098268173584 " style="color: rgb(0, 0, 0);" class="selected"/><path fill="none" fill-opacity="1" stroke="#000000" stroke-opacity="1" stroke-width="2" stroke-dasharray="none" stroke-linejoin="round" stroke-linecap="butt" stroke-dashoffset="" fill-rule="nonzero" opacity="1" marker-start="" marker-mid="" marker-end="" d="M192.29888523011178,100.20528249302822 C210.59442264553917,89.08160441895603 228.0108030445837,80.09047261830199 234.4716518004102,70.4330831633236 C240.9325005562364,60.77569370834533 212.37708248257573,66.95109997959116 208.19092606794473,67.88470755218617 C204.00476965331384,68.8183151247813 196.48526107274347,70.28364611270098 194.62459190551405,70.4330831633236 " style="color: rgb(0, 0, 0);" class="selected" id="svg_92"/><path fill="#000000" fill-opacity="1" stroke="#000000" stroke-opacity="1" stroke-width="2" stroke-dasharray="none" stroke-linejoin="round" stroke-linecap="butt" stroke-dashoffset="" fill-rule="nonzero" opacity="1" marker-start="" marker-mid="" marker-end="" d="M198.47208888874877,88.79588541184819 L204.71140596566926,71.60626771640227 " id="svg_1" class="selected"/><path fill="#000000" fill-opacity="1" stroke="#000000" stroke-opacity="1" stroke-width="2" stroke-dasharray="none" stroke-linejoin="round" stroke-linecap="butt" stroke-dashoffset="" fill-rule="nonzero" opacity="1" marker-start="" marker-mid="" marker-end="" d="M206.2712352348993,67.30886329254088 L208.35100759387282,60.00327577197635 " id="svg_3" class="selected"/><path fill="none" fill-opacity="1" stroke="#000000" stroke-opacity="1" stroke-width="2" stroke-dasharray="none" stroke-linejoin="round" stroke-linecap="butt" stroke-dashoffset="" fill-rule="nonzero" opacity="1" marker-start="" marker-mid="" marker-end="" id="svg_20" d="M130.26256823909398,56.130514000906885 C60.88385807056957,60.20216502687185 108.08610505899807,67.62822490870377 132.27793914711413,68.23161809210262 C156.46977973451874,68.83501127550147 209.08664256735986,67.59498448548516 208.0951695888168,61.86274655731819 C207.1037031095625,56.130514000906885 169.0313058154419,56.130514000906885 156.737095475533,56.432213278484085 " style="color: rgb(0, 0, 0);" class="selected"/><path fill="#000000" fill-opacity="1" stroke="#000000" stroke-opacity="1" stroke-width="2" stroke-dasharray="none" stroke-linejoin="round" stroke-linecap="butt" stroke-dashoffset="" fill-rule="nonzero" opacity="1" marker-start="" marker-mid="" marker-end="" d="M98.12307256053084,63.44166128844478 C98.12307256053084,61.86819888918103 121.93567965685392,60.86275129139682 146.50227572547968,60.43301084901066 C171.06887179410546,60.00327040662444 203.67151977843469,61.438458446794925 203.67151977843469,63.011920846058615 C203.67151977843469,64.58538324532225 181.41787104666645,68.92038995789255 152.69173026009372,68.92038995789255 C123.96558947352099,68.92038995789255 98.12307256053084,65.01512368770841 98.12307256053084,63.44166128844478 z" id="svg_22" class="selected"/><path fill="#000000" fill-opacity="1" stroke="#000000" stroke-opacity="1" stroke-width="2" stroke-dasharray="none" stroke-linejoin="round" stroke-linecap="butt" stroke-dashoffset="" fill-rule="nonzero" opacity="1" marker-start="" marker-mid="" marker-end="" id="svg_45" d="M202.9427893479503,7.805426621547554 C227.9917270368432,6.766551998318619 192.89301133955186,16.771690315800356 156.26715370894433,23.306424872628725 C119.64129607833675,29.841159429457093 132.817671689348,29.233277145100942 148.45065970241217,32.57662970905966 C164.08364771547642,35.91998227301838 186.63981613432622,40.479099405689226 168.77354411939572,46.10201053598337 C150.90727210446516,51.72492166627757 120.98126647945654,60.53921478944136 145.10073369961268,53.54856851934585 C169.22020091976898,46.55792224925045 150.01395850371864,52.33280395063366 168.3268873190224,47.01383396251754 C186.63981613432622,41.694863974401414 161.85036371361016,33.03254142232663 141.30415089644,30.44904171381313 C120.7579380792699,27.86554200529963 221.70237496362734,9.477102903526884 208.07934255224282,8.10936776372563 C194.4563101408583,6.741632623924318 180.60994932928713,6.285720910657233 174.35675412406152,6.285720910657233 " style="color: rgb(0, 0, 0);" class="selected"/></g></svg>