<svg xmlns="http://www.w3.org/2000/svg" xmlns:se="http://svg-edit.googlecode.com" xmlns:xlink="http://www.w3.org/1999/xlink" xmlns:dc="http://purl.org/dc/elements/1.1/" xmlns:cc="http://creativecommons.org/ns#" xmlns:rdf="http://www.w3.org/1999/02/22-rdf-syntax-ns#" xmlns:inkscape="http://www.inkscape.org/namespaces/inkscape" width="777" height="480" style="">                                    <title>my vector image</title>                                    <!-- Created with Vector Paint - http://www.vectorpaint.yaks.com/ https://chrome.google.com/webstore/detail/hnbpdiengicdefcjecjbnjnoifekhgdo -->                                    <rect id="backgroundrect" width="100%" height="0%" x="0" y="0" fill="#FFFFFF" stroke="none"/>                                <g class="currentLayer" style=""><title>Layer 1</title><path fill="#ffffff" fill-opacity="1" stroke="#000000" stroke-opacity="1" stroke-width="2" stroke-dasharray="none" stroke-linejoin="round" stroke-linecap="butt" stroke-dashoffset="" fill-rule="nonzero" opacity="1" marker-start="" marker-mid="" marker-end="" d="M67.90322740168085,265.90323106957976 C67.90322740168085,255.88719026875904 107.33496718912488,247.77419722009427 156.01612742053726,247.77419722009427 C204.6972876519497,247.77419722009427 244.12902743939367,255.88719026875904 244.12902743939367,265.90323106957976 C244.12902743939367,275.9192718704005 204.6972876519497,284.03226491906526 156.01612742053726,284.03226491906526 C107.33496718912488,284.03226491906526 67.90322740168085,275.9192718704005 67.90322740168085,265.90323106957976 z" id="svg_46" class=""/><path fill="none" fill-opacity="1" stroke="#000000" stroke-opacity="1" stroke-width="2" stroke-dasharray="none" stroke-linejoin="round" stroke-linecap="butt" stroke-dashoffset="" fill-rule="nonzero" opacity="1" marker-start="" marker-mid="" marker-end="" id="svg_66" d="M69.26451304145553,274.3137183055302 C172.8070038488196,296.74084541142395 229.14354776043285,275.1347341644543 237.00645110726782,273.9032103760681 " style="color: rgb(0, 0, 0);" class=""/><path fill="none" fill-opacity="1" stroke="#000000" stroke-opacity="1" stroke-width="2" stroke-dasharray="none" stroke-linejoin="round" stroke-linecap="butt" stroke-dashoffset="" fill-rule="nonzero" opacity="1" marker-start="" marker-mid="" marker-end="" d="M68.45806124397018,276.7330727443119 C172.00055205133424,299.1601998502057 228.3370959629475,277.55408860323604 236.19999930978247,276.32256481484984 " style="color: rgb(0, 0, 0);" class="" id="svg_68"/><path fill="none" fill-opacity="1" stroke="#000000" stroke-opacity="1" stroke-width="2" stroke-dasharray="none" stroke-linejoin="round" stroke-linecap="butt" stroke-dashoffset="" fill-rule="nonzero" opacity="1" marker-start="" marker-mid="" marker-end="" d="M60.58709228278872,276.7330727443119 C181.0548007821012,299.1601998502057 246.6002043829219,277.55408860323604 255.748390223912,276.32256481484984 " style="color: rgb(0, 0, 0);" class="" id="svg_69"/><path fill="#000000" fill-opacity="1" stroke="#000000" stroke-opacity="1" stroke-width="2" stroke-dasharray="none" stroke-linejoin="round" stroke-linecap="butt" stroke-dashoffset="" fill-rule="nonzero" opacity="1" marker-start="" marker-mid="" marker-end="" d="M112.54838999999998,265.30502 C112.54838999999998,260.16254000000004 139.09482000000003,259.22293 156.64515999999998,259.22294 C174.19549999999998,259.22294 202.35484000000002,260.16254000000004 202.35484000000002,265.30502 C202.35484000000002,270.44749 182.26002,274.6129 157.45161000000002,274.6129 C132.64319999999998,274.6129 112.54838999999998,270.44749 112.54838999999998,265.30502 z" id="svg_11" class=""/><path fill="#000000" fill-opacity="1" stroke="#000000" stroke-opacity="1" stroke-width="2" stroke-dasharray="none" stroke-linejoin="round" stroke-linecap="butt" stroke-dashoffset="" fill-rule="nonzero" opacity="1" marker-start="" marker-mid="" marker-end="" d="M157,262 C157,261.4475138121547 161.47513812154693,261 167,261 C172.52486187845307,261 177,261.4475138121547 177,262 C177,262.5524861878453 172.52486187845307,263 167,263 C161.47513812154693,263 157,262.5524861878453 157,262 z" id="svg_13" class=""/><path fill="none" fill-opacity="1" stroke="#000000" stroke-opacity="1" stroke-width="2" stroke-dasharray="none" stroke-linejoin="round" stroke-linecap="butt" stroke-dashoffset="" fill-rule="nonzero" opacity="1" marker-start="" marker-mid="" marker-end="" id="svg_25" d="M201.52257429987475,262.99999993065194 C193.3853511818984,256.5443818849451 176.38107847443615,256.248831775657 174.94441520778622,256.86257295149187 " style="color: rgb(0, 0, 0);" class=""/><path fill="none" fill-opacity="1" stroke="#000000" stroke-opacity="1" stroke-width="2" stroke-dasharray="none" stroke-linejoin="round" stroke-linecap="butt" stroke-dashoffset="" fill-rule="nonzero" opacity="1" marker-start="" marker-mid="" marker-end="" d="M131.79249122924926,269.83750419794876 C128.06088413764934,259.98525642776207 112.33909862383445,242.42537000754848 114.74576339335323,255.6285539082767 " style="color: rgb(0, 0, 0);" class="" id="svg_27" transform="rotate(-63.7083625793457 123.14450073242203,260.36444091796886) "/><path fill="#ffffff" fill-opacity="1" stroke="#ffffff" stroke-opacity="1" stroke-width="2" stroke-dasharray="none" stroke-linejoin="round" stroke-linecap="butt" stroke-dashoffset="" fill-rule="nonzero" opacity="1" marker-start="" marker-mid="" marker-end="" d="M111.42579999999998,217.27741995231628 C111.42579999999998,190.77589995231628 133.0797,169.3096799523163 159.8129,169.3096799523163 C186.54611,169.3096799523163 208.2,190.77589995231628 208.2,217.27741995231628 C208.2,243.77893995231628 183.34611,266.8451599523163 156.61290000000002,266.8451599523163 C129.8797,266.8451599523163 111.42579999999998,243.77893995231628 111.42579999999998,217.27741995231628 z" id="svg_30" class=""/><path fill="#000000" fill-opacity="1" stroke="#000000" stroke-opacity="1" stroke-width="2" stroke-dasharray="none" stroke-linejoin="round" stroke-linecap="butt" stroke-dashoffset="" fill-rule="nonzero" opacity="1" marker-start="" marker-mid="" marker-end="" d="M91.9517600193521,206.471486042538 C91.4964887075331,201.46944067062586 107.24644871568944,265.8784383666667 153.88772817127733,269.4784224819699 C200.52900762686517,273.0784065972731 229.2737352064779,191.99740022234946 222.14851266234422,206.40645394469885 C215.02330784926085,220.81549948279232 191.42040753249074,267.67006202260166 155.9596900485816,266.7757601898584 C120.4989725646725,265.8814665413711 92.40703133117103,211.47353141445012 91.9517600193521,206.471486042538 z" id="svg_43" class=""/><path fill="#000000" fill-opacity="1" stroke="#000000" stroke-opacity="1" stroke-width="2" stroke-dasharray="none" stroke-linejoin="round" stroke-linecap="butt" stroke-dashoffset="" fill-rule="nonzero" opacity="1" marker-start="" marker-mid="" marker-end="" id="svg_80" d="M68.89151917904479,143.20528955138514 L76.70823532734738,174.99995530159066 L84.41149740351779,193.5428863051469 L90.88265419633728,210.9282802870471 L99.9143981171332,226.86685906337328 " style="color: rgb(0, 0, 0);" class="" transform="rotate(-0.7736959457397461 84.40298461913909,185.0360717773436) "/><path fill="none" fill-opacity="1" stroke="#000000" stroke-opacity="1" stroke-width="2" stroke-dasharray="none" stroke-linejoin="round" stroke-linecap="butt" stroke-dashoffset="" fill-rule="nonzero" opacity="1" marker-start="" marker-mid="" marker-end="" id="svg_90" d="M223.42052965769176,197.973043712405 C242.17063523039485,184.39228826956534 262.82753120032214,174.805872662855 266.6411119947702,161.62455120362827 C270.45469278921814,148.44322974440152 241.2172400317828,155.6330414494343 237.40365923733475,157.23077738388602 C233.59007844288658,158.82851331833774 225.96291685399052,161.62455120362827 225.80401765422187,161.62455120362827 " style="color: rgb(0, 0, 0);" class="" transform="rotate(6.7237114906311035 245.201904296875,175.90570068359364) "/><path fill="none" fill-opacity="1" stroke="#000000" stroke-opacity="1" stroke-width="2" stroke-dasharray="none" stroke-linejoin="round" stroke-linecap="butt" stroke-dashoffset="" fill-rule="nonzero" opacity="1" marker-start="" marker-mid="" marker-end="" d="M218.501724084174,211.839605968345 C246.65178554487363,191.13189130726698 273.4491497066181,174.39410093179202 283.3900049783215,156.41601276051276 C293.33086025002467,138.43792458923355 249.3946393259156,149.93399181894404 242.95369377289796,151.67198523173286 C236.51274821988056,153.4099786445216 224.94300725568098,156.13782241883976 222.0801259843514,156.41601276051276 " style="color: rgb(0, 0, 0);" class="" transform="rotate(5.138306140899658 251.6745605468753,179.14659118652347) " id="svg_92"/><path fill="#000000" fill-opacity="1" stroke="#000000" stroke-opacity="1" stroke-width="2" stroke-dasharray="none" stroke-linejoin="round" stroke-linecap="butt" stroke-dashoffset="" fill-rule="nonzero" opacity="1" marker-start="" marker-mid="" marker-end="" d="M228,190.60000000000002 L237.60000000000002,158.60000000000002 " id="svg_1" class=""/><path fill="#000000" fill-opacity="1" stroke="#000000" stroke-opacity="1" stroke-width="2" stroke-dasharray="none" stroke-linejoin="round" stroke-linecap="butt" stroke-dashoffset="" fill-rule="nonzero" opacity="1" marker-start="" marker-mid="" marker-end="" d="M240,150.60000000000002 L243.20000000000005,137 " id="svg_3" class=""/><path fill="none" fill-opacity="1" stroke="#000000" stroke-opacity="1" stroke-width="2" stroke-dasharray="none" stroke-linejoin="round" stroke-linecap="butt" stroke-dashoffset="" fill-rule="nonzero" opacity="1" marker-start="" marker-mid="" marker-end="" id="svg_20" d="M123.05078998807909,129.79051001192093 C16.302629988079048,137.37025001192092 88.92941998807908,151.19452001192093 126.15169998807909,152.31779001192092 C163.37398998807907,153.44106001192094 244.33186998807912,151.13264001192093 242.80635998807907,140.46157001192094 C241.2808599880791,129.79051001192093 182.70152998807907,129.79051001192093 163.78528998807906,130.3521500119209 " style="color: rgb(0, 0, 0);" class=""/><path fill="#000000" fill-opacity="1" stroke="#000000" stroke-opacity="1" stroke-width="2" stroke-dasharray="none" stroke-linejoin="round" stroke-linecap="butt" stroke-dashoffset="" fill-rule="nonzero" opacity="1" marker-start="" marker-mid="" marker-end="" d="M73.59999998807905,143.40086001192094 C73.59999998807905,140.47172001192092 110.23878998807908,138.59999001192094 148.03768998807908,137.79999001192093 C185.83658998807908,136.99999001192094 235.99999998807903,139.67172001192094 235.99999998807903,142.60086001192093 C235.99999998807903,145.53000001192092 201.75986998807906,153.60000001192094 157.56096998807908,153.60000001192094 C113.3620699880791,153.60000001192094 73.59999998807905,146.33000001192093 73.59999998807905,143.40086001192094 z" id="svg_22" class=""/><path fill="#000000" fill-opacity="1" stroke="#000000" stroke-opacity="1" stroke-width="2" stroke-dasharray="none" stroke-linejoin="round" stroke-linecap="butt" stroke-dashoffset="" fill-rule="nonzero" opacity="1" marker-start="" marker-mid="" marker-end="" id="svg_45" d="M234.87875353651975,39.829067963724846 C273.41979879015537,37.89511058710836 219.4158642986091,56.52056415052521 163.06222352044603,68.68555289683735 C106.70858274228283,80.8505416431495 126.98214863198785,79.7189147830274 151.03553189095993,85.94286251369877 C175.08891514993206,92.16681024437008 209.79451099502035,100.65401169528553 182.30493012762372,111.12156015141458 C154.81534926022704,121.58910860754365 108.7703013073376,137.9976980793135 145.881235478323,124.9839891879098 C182.9921696493086,111.9702802965061 153.44087021685715,122.72073546766569 181.61769060593872,112.81900044159768 C209.79451099502035,102.91726541552966 171.6527175415075,86.79158265879028 140.03969954400128,81.98216850327154 C108.42668154649516,77.17275434775277 263.74281344728627,42.941041829060495 242.7820080358963,40.394881393785866 C221.82120262450633,37.84872095851122 200.5167774522739,37.000000813419696 190.89542414868515,37.000000813419696 " style="color: rgb(0, 0, 0);" class=""/></g></svg>