<svg xmlns="http://www.w3.org/2000/svg" xmlns:se="http://svg-edit.googlecode.com" xmlns:xlink="http://www.w3.org/1999/xlink" xmlns:dc="http://purl.org/dc/elements/1.1/" xmlns:cc="http://creativecommons.org/ns#" xmlns:rdf="http://www.w3.org/1999/02/22-rdf-syntax-ns#" xmlns:inkscape="http://www.inkscape.org/namespaces/inkscape" width="30%" height="300" style="">                                    <title>my vector image</title>                                    <!-- Created with Vector Paint - http://www.vectorpaint.yaks.com/ https://chrome.google.com/webstore/detail/hnbpdiengicdefcjecjbnjnoifekhgdo -->                                    <rect id="backgroundrect" width="100%" height="100%" x="0" y="0" fill="#FFFFFF" stroke="none"/>                                <g class="currentLayer" style=""><title>Layer 1</title><path fill="#ffffff" fill-opacity="1" stroke="#000000" stroke-opacity="1" stroke-width="3" stroke-dasharray="none" stroke-linejoin="round" stroke-linecap="butt" stroke-dashoffset="" fill-rule="nonzero" opacity="1" marker-start="" marker-mid="" marker-end="" d="M345.90322740168085,260.90323106957976 C345.90322740168085,250.88719026875904 385.3349671891249,242.77419722009427 434.01612742053726,242.77419722009427 C482.6972876519497,242.77419722009427 522.1290274393937,250.88719026875904 522.1290274393937,260.90323106957976 C522.1290274393937,270.9192718704005 482.6972876519497,279.03226491906526 434.01612742053726,279.03226491906526 C385.3349671891249,279.03226491906526 345.90322740168085,270.9192718704005 345.90322740168085,260.90323106957976 z" id="svg_46" class=""/><path fill="none" fill-opacity="1" stroke="#000000" stroke-opacity="1" stroke-width="5" stroke-dasharray="none" stroke-linejoin="round" stroke-linecap="butt" stroke-dashoffset="" fill-rule="nonzero" opacity="1" marker-start="" marker-mid="" marker-end="" id="svg_66" d="M347.26451304145553,271.3137183055302 C450.8070038488196,293.74084541142395 507.14354776043285,272.1347341644543 515.0064511072678,270.9032103760681 " style="color: rgb(0, 0, 0);" class=""/><path fill="none" fill-opacity="1" stroke="#000000" stroke-opacity="1" stroke-width="5" stroke-dasharray="none" stroke-linejoin="round" stroke-linecap="butt" stroke-dashoffset="" fill-rule="nonzero" opacity="1" marker-start="" marker-mid="" marker-end="" d="M346.4580612439702,273.7330727443119 C450.00055205133424,296.1601998502057 506.3370959629475,274.55408860323604 514.1999993097825,273.32256481484984 " style="color: rgb(0, 0, 0);" class="" id="svg_68"/><path fill="none" fill-opacity="1" stroke="#000000" stroke-opacity="1" stroke-width="5" stroke-dasharray="none" stroke-linejoin="round" stroke-linecap="butt" stroke-dashoffset="" fill-rule="nonzero" opacity="1" marker-start="" marker-mid="" marker-end="" d="M337.5870922827887,273.7330727443119 C458.0548007821012,296.1601998502057 523.6002043829219,274.55408860323604 532.748390223912,273.32256481484984 " style="color: rgb(0, 0, 0);" class="" id="svg_69"/><path fill="#000000" fill-opacity="1" stroke="#000000" stroke-opacity="1" stroke-width="1" stroke-dasharray="none" stroke-linejoin="round" stroke-linecap="butt" stroke-dashoffset="" fill-rule="nonzero" opacity="1" marker-start="" marker-mid="" marker-end="" d="M390.54839,260.30502C390.54839,255.16254 417.09482,254.22293 434.64516,254.22294C452.1955,254.22294 480.35484,255.16254 480.35484,260.30502C480.35484,265.44749 460.26002,269.6129 435.45161,269.6129C410.6432,269.6129 390.54839,265.44749 390.54839,260.30502z" id="svg_11" class=""/><path fill="#000000" fill-opacity="1" stroke="#000000" stroke-opacity="1" stroke-width="1" stroke-dasharray="none" stroke-linejoin="round" stroke-linecap="butt" stroke-dashoffset="" fill-rule="nonzero" opacity="1" marker-start="" marker-mid="" marker-end="" d="M435,257 C435,256.4475138121547 439.47513812154693,256 445,256 C450.52486187845307,256 455,256.4475138121547 455,257 C455,257.5524861878453 450.52486187845307,258 445,258 C439.47513812154693,258 435,257.5524861878453 435,257 Z" id="svg_13" class=""/><path fill="none" fill-opacity="1" stroke="#000000" stroke-opacity="1" stroke-width="1" stroke-dasharray="none" stroke-linejoin="round" stroke-linecap="butt" stroke-dashoffset="" fill-rule="nonzero" opacity="1" marker-start="" marker-mid="" marker-end="" id="svg_25" d="M479.52257429987475,257.99999993065194 C471.3853511818984,251.54438188494512 454.38107847443615,251.24883177565698 452.9444152077862,251.86257295149187 " style="color: rgb(0, 0, 0);" class=""/><path fill="none" fill-opacity="1" stroke="#000000" stroke-opacity="1" stroke-width="1" stroke-dasharray="none" stroke-linejoin="round" stroke-linecap="butt" stroke-dashoffset="" fill-rule="nonzero" opacity="1" marker-start="" marker-mid="" marker-end="" d="M409.79249122924926,264.83750419794876 C406.06088413764934,254.98525642776207 390.33909862383445,237.42537000754848 392.74576339335323,250.6285539082767 " style="color: rgb(0, 0, 0);" class="" id="svg_27" transform="rotate(-63.7083625793457 401.1445007324219,255.36442565917972) "/><path fill="#ffffff" fill-opacity="1" stroke="#ffffff" stroke-opacity="1" stroke-width="3" stroke-dasharray="none" stroke-linejoin="round" stroke-linecap="butt" stroke-dashoffset="" fill-rule="nonzero" opacity="1" marker-start="" marker-mid="" marker-end="" d="M389.4258,212.27741995231628 C389.4258,185.77589995231628 411.0797,164.3096799523163 437.8129,164.3096799523163 C464.54611,164.3096799523163 486.2,185.77589995231628 486.2,212.27741995231628 C486.2,238.77893995231628 461.34611,261.8451599523163 434.6129,261.8451599523163 C407.8797,261.8451599523163 389.4258,238.77893995231628 389.4258,212.27741995231628 z" id="svg_30" class=""/><path fill="#000000" fill-opacity="1" stroke="#000000" stroke-opacity="1" stroke-width="3" stroke-dasharray="none" stroke-linejoin="round" stroke-linecap="butt" stroke-dashoffset="" fill-rule="nonzero" opacity="1" marker-start="" marker-mid="" marker-end="" d="M369.9517600193521,201.471486042538 C369.4964887075331,196.46944067062586 385.24644871568944,260.8784383666667 431.88772817127733,264.4784224819699 C478.52900762686517,268.0784065972731 507.2737352064779,186.99740022234946 500.1485126623442,201.40645394469885 C493.02330784926085,215.81549948279232 469.42040753249074,262.67006202260166 433.9596900485816,261.7757601898584 C398.4989725646725,260.8814665413711 370.407031331171,206.47353141445012 369.9517600193521,201.471486042538 z" id="svg_43" class=""/><path fill="#000000" fill-opacity="1" stroke="#000000" stroke-opacity="1" stroke-width="3" stroke-dasharray="none" stroke-linejoin="round" stroke-linecap="butt" stroke-dashoffset="" fill-rule="nonzero" opacity="1" marker-start="" marker-mid="" marker-end="" id="svg_80" d="M346.8915191790448,138.20528955138514 L354.7082353273474,169.99995530159066 L362.4114974035178,188.5428863051469 L368.8826541963373,205.9282802870471 L377.9143981171332,221.86685906337328 " style="color: rgb(0, 0, 0);" class="" transform="rotate(-0.7736959457397461 362.40298461913665,180.03607177734318) "/><path fill="none" fill-opacity="1" stroke="#000000" stroke-opacity="1" stroke-width="2" stroke-dasharray="none" stroke-linejoin="round" stroke-linecap="butt" stroke-dashoffset="" fill-rule="nonzero" opacity="1" marker-start="" marker-mid="" marker-end="" id="svg_90" d="M501.42052965769176,192.973043712405 C520.1706352303949,179.39228826956534 540.8275312003221,169.805872662855 544.6411119947702,156.62455120362827 C548.4546927892181,143.44322974440152 519.2172400317828,150.6330414494343 515.4036592373348,152.23077738388602 C511.5900784428866,153.82851331833774 503.9629168539905,156.62455120362827 503.80401765422187,156.62455120362827 " style="color: rgb(0, 0, 0);" class="" transform="rotate(6.7237114906311035 523.2019042968747,170.90570068359375) "/><path fill="none" fill-opacity="1" stroke="#000000" stroke-opacity="1" stroke-width="3" stroke-dasharray="none" stroke-linejoin="round" stroke-linecap="butt" stroke-dashoffset="" fill-rule="nonzero" opacity="1" marker-start="" marker-mid="" marker-end="" d="M496.501724084174,206.839605968345 C524.6517855448736,186.13189130726698 551.4491497066181,169.39410093179202 561.3900049783215,151.41601276051276 C571.3308602500247,133.43792458923355 527.3946393259156,144.93399181894404 520.953693772898,146.67198523173286 C514.5127482198806,148.4099786445216 502.943007255681,151.13782241883976 500.0801259843514,151.41601276051276 " style="color: rgb(0, 0, 0);" class="" transform="rotate(5.138306140899658 529.6745605468749,174.14659118652304) " id="svg_92"/><path fill="#000000" fill-opacity="1" stroke="#000000" stroke-opacity="1" stroke-width="3" stroke-dasharray="none" stroke-linejoin="round" stroke-linecap="butt" stroke-dashoffset="" fill-rule="nonzero" opacity="1" marker-start="" marker-mid="" marker-end="" d="M506,185.60000000000002L515.6,153.60000000000002" id="svg_1"/><path fill="#000000" fill-opacity="1" stroke="#000000" stroke-opacity="1" stroke-width="3" stroke-dasharray="none" stroke-linejoin="round" stroke-linecap="butt" stroke-dashoffset="" fill-rule="nonzero" opacity="1" marker-start="" marker-mid="" marker-end="" d="M518,145.60000000000002L521.2,132" id="svg_3"/><path fill="none" fill-opacity="1" stroke="#000000" stroke-opacity="1" stroke-width="3" stroke-dasharray="none" stroke-linejoin="round" stroke-linecap="butt" stroke-dashoffset="" fill-rule="nonzero" opacity="1" marker-start="" marker-mid="" marker-end="" id="svg_20" d="M401.0507899880791,124.79051001192093 C294.30262998807905,132.37025001192092 366.9294199880791,146.19452001192093 404.1516999880791,147.31779001192092 C441.3739899880791,148.44106001192094 522.3318699880791,146.13264001192093 520.8063599880791,135.46157001192094 C519.2808599880791,124.79051001192093 460.7015299880791,124.79051001192093 441.78528998807906,125.35215001192093 " style="color: rgb(0, 0, 0);" class=""/><path fill="#000000" fill-opacity="1" stroke="#000000" stroke-opacity="1" stroke-width="3" stroke-dasharray="none" stroke-linejoin="round" stroke-linecap="butt" stroke-dashoffset="" fill-rule="nonzero" opacity="1" marker-start="" marker-mid="" marker-end="" d="M351.59999998807905,138.40086001192094 C351.59999998807905,135.47172001192092 388.2387899880791,133.59999001192094 426.0376899880791,132.79999001192093 C463.8365899880791,131.99999001192094 513.999999988079,134.67172001192094 513.999999988079,137.60086001192093 C513.999999988079,140.53000001192092 479.75986998807906,148.60000001192094 435.5609699880791,148.60000001192094 C391.3620699880791,148.60000001192094 351.59999998807905,141.33000001192093 351.59999998807905,138.40086001192094 z" id="svg_22" class=""/><path fill="#000000" fill-opacity="1" stroke="#000000" stroke-opacity="1" stroke-width="3" stroke-dasharray="none" stroke-linejoin="round" stroke-linecap="butt" stroke-dashoffset="" fill-rule="nonzero" opacity="1" marker-start="" marker-mid="" marker-end="" id="svg_45" d="M512.8787535365198,34.829067963724846 C551.4197987901554,32.89511058710836 497.4158642986091,51.52056415052521 441.062223520446,63.68555289683734 C384.70858274228283,75.8505416431495 404.98214863198785,74.7189147830274 429.03553189095993,80.94286251369877 C453.08891514993206,87.16681024437008 487.79451099502035,95.65401169528553 460.3049301276237,106.12156015141458 C432.81534926022704,116.58910860754365 386.7703013073376,132.9976980793135 423.881235478323,119.9839891879098 C460.9921696493086,106.9702802965061 431.44087021685715,117.72073546766569 459.6176906059387,107.81900044159768 C487.79451099502035,97.91726541552966 449.6527175415075,81.79158265879028 418.0396995440013,76.98216850327154 C386.42668154649516,72.17275434775277 541.7428134472863,37.941041829060495 520.7820080358963,35.394881393785866 C499.8212026245063,32.84872095851122 478.5167774522739,32.000000813419696 468.89542414868515,32.000000813419696 " style="color: rgb(0, 0, 0);" class=""/></g></svg>