<svg xmlns="http://www.w3.org/2000/svg" xmlns:se="http://svg-edit.googlecode.com" xmlns:xlink="http://www.w3.org/1999/xlink" xmlns:dc="http://purl.org/dc/elements/1.1/" xmlns:cc="http://creativecommons.org/ns#" xmlns:rdf="http://www.w3.org/1999/02/22-rdf-syntax-ns#" xmlns:inkscape="http://www.inkscape.org/namespaces/inkscape" width="342.35294111047256" height="263.70588558685404" style="">                                    <title>my vector image</title>                                    <!-- Created with Vector Paint - http://www.vectorpaint.yaks.com/ https://chrome.google.com/webstore/detail/hnbpdiengicdefcjecjbnjnoifekhgdo -->                                    <rect id="backgroundrect" width="100%" height="100%" x="0" y="0" fill="#FFFFFF" stroke="none"/>                                <g class="currentLayer" style=""><title>Layer 1</title><g class=""><path fill="none" stroke="#000000" stroke-opacity="1" stroke-width="2" stroke-dasharray="none" stroke-linejoin="round" stroke-linecap="butt" stroke-dashoffset="" fill-rule="nonzero" opacity="1" marker-start="" marker-mid="" marker-end="" d="M76.63342050494782,215.7147082869433 C76.63342050494782,209.49041021773496 100.1272297850604,204.4487287816762 129.13193260001415,204.4487287816762 C158.13663541496797,204.4487287816762 181.63044469508046,209.49041021773496 181.63044469508046,215.7147082869433 C181.63044469508046,221.93900635615174 158.13663541496797,226.98068779221043 129.13193260001415,226.98068779221043 C100.1272297850604,226.98068779221043 76.63342050494782,221.93900635615174 76.63342050494782,215.7147082869433 z" id="svg_46" class=""/><path fill="none" stroke="#000000" stroke-opacity="1" stroke-width="2" stroke-dasharray="none" stroke-linejoin="round" stroke-linecap="butt" stroke-dashoffset="" fill-rule="nonzero" opacity="1" marker-start="" marker-mid="" marker-end="" id="svg_66" d="M77.44448756333833,222.18412837925516 C139.13609804081,236.12108477939944 172.70195197712505,222.69433470999138 177.38674530895068,221.92902521388703 " style="color: rgb(0, 0, 0);" class=""/><path fill="none" stroke="#000000" stroke-opacity="1" stroke-width="2" stroke-dasharray="none" stroke-linejoin="round" stroke-linecap="butt" stroke-dashoffset="" fill-rule="nonzero" opacity="1" marker-start="" marker-mid="" marker-end="" d="M76.96399583698143,223.68759501457538 C138.65560631445314,237.62455141471966 172.2214602507682,224.19780134531158 176.90625358259373,223.43249184920725 " style="color: rgb(0, 0, 0);" class="" id="svg_68"/><path fill="none" stroke="#000000" stroke-opacity="1" stroke-width="2" stroke-dasharray="none" stroke-linejoin="round" stroke-linecap="butt" stroke-dashoffset="" fill-rule="nonzero" opacity="1" marker-start="" marker-mid="" marker-end="" d="M71.67858733035095,223.68759501457538 C143.45440506376627,237.62455141471966 182.50698604767783,224.19780134531158 187.9575630337758,223.43249184920725 " style="color: rgb(0, 0, 0);" class="" id="svg_69"/><path fill="none" stroke="#000000" stroke-opacity="1" stroke-width="2" stroke-dasharray="none" stroke-linejoin="round" stroke-linecap="butt" stroke-dashoffset="" fill-rule="nonzero" opacity="1" marker-start="" marker-mid="" marker-end="" d="M103.2334371671219,215.34296020010854 C103.2334371671219,212.14725353602233 119.05005512133283,211.56334889494593 129.50671625228352,211.56335510927573 C139.9633773832343,211.56335510927573 156.74098260633698,212.14725353602233 156.74098260633698,215.34296020010854 C156.74098260633698,218.53866064986505 144.768295853405,221.12718379349448 129.9872069076814,221.12718379349448 C115.20611796195783,221.12718379349448 103.2334371671219,218.53866064986505 103.2334371671219,215.34296020010854 z" id="svg_11" class=""/><path fill="none" stroke="#000000" stroke-opacity="1" stroke-width="2" stroke-dasharray="none" stroke-linejoin="round" stroke-linecap="butt" stroke-dashoffset="" fill-rule="nonzero" opacity="1" marker-start="" marker-mid="" marker-end="" id="svg_25" d="M156.24511070886243,213.9105447125484 C151.39687502273802,209.89881076133017 141.26556602928213,209.71514617657274 140.40958825684908,210.09654518359653 " style="color: rgb(0, 0, 0);" class=""/><path fill="none" stroke="#000000" stroke-opacity="1" stroke-width="2" stroke-dasharray="none" stroke-linejoin="round" stroke-linecap="butt" stroke-dashoffset="" fill-rule="nonzero" opacity="1" marker-start="" marker-mid="" marker-end="" d="M116.88924640882144,210.0620531902977 C110.64163290545392,209.42919729568703 97.11249585423116,213.35503915486086 104.80042845299741,215.64845300131876 " style="color: rgb(0, 0, 0);" class="" id="svg_27"/><path fill="#ffffff" stroke="none" stroke-width="2" stroke-dasharray="none" stroke-linejoin="round" stroke-linecap="butt" stroke-dashoffset="" fill-rule="nonzero" opacity="1" marker-start="" marker-mid="" marker-end="" d="M102.09728365209972,187.20292014240715 C102.09728365209972,170.73400162985777 114.99888524292331,157.3941845947421 130.92678255693167,157.3941845947421 C146.85468582903596,157.3941845947421 159.75628146176354,170.73400162985777 159.75628146176354,187.20292014240715 C159.75628146176354,203.67183865495662 144.94809509523583,218.00594845592414 129.02019182313148,218.00594845592414 C113.09229450912312,218.00594845592414 102.09728365209972,203.67183865495662 102.09728365209972,187.20292014240715 z" id="svg_30" class="" fill-opacity="1"/><path fill="none" stroke="#000000" stroke-opacity="1" stroke-width="2" stroke-dasharray="none" stroke-linejoin="round" stroke-linecap="butt" stroke-dashoffset="" fill-rule="nonzero" opacity="1" marker-start="" marker-mid="" marker-end="" d="M90.96176720817999,178.78186194797993 C90.69051218803028,175.67342599313298 100.07448962842844,215.69930128372312 127.86381188549345,217.93645013561544 C155.65313414255843,220.1735989875077 172.77951890783962,169.78718768339692 168.53424288318047,178.7414488577114 C164.28897742285133,187.69570494605938 150.22614272448797,216.81267530886387 129.0983066717608,216.25692665712347 C107.97047061903373,215.70118309134955 91.23302222832972,181.89029790282686 90.96176720817999,178.78186194797993 z" id="svg_43" class=""/><path fill="none" stroke="#000000" stroke-opacity="1" stroke-width="2" stroke-dasharray="none" stroke-linejoin="round" stroke-linecap="butt" stroke-dashoffset="" fill-rule="nonzero" opacity="1" marker-start="" marker-mid="" marker-end="" id="svg_80" d="M76.886555837352,139.5986922398701 L81.79920325739802,159.2895523535226 L86.53764569519063,170.74705030001067 L90.53274217343618,181.495621103815 L96.04168190644668,191.32368856500813 " style="color: rgb(0, 0, 0);" class=""/><path fill="none" stroke="#000000" stroke-opacity="1" stroke-width="2" stroke-dasharray="none" stroke-linejoin="round" stroke-linecap="butt" stroke-dashoffset="" fill-rule="nonzero" opacity="1" marker-start="" marker-mid="" marker-end="" id="svg_90" d="M167.84199562707994,171.82155366607756 C179.88402636829036,164.80429782258975 192.77568860783788,160.39091963497415 195.95173759998437,152.53341954603644 C199.12778659213078,144.67591945709864 181.32609102849293,146.98590405416843 178.95809475085036,147.69449081065736 C176.5900984732076,148.40307756714628 171.88196980462942,149.5737368272811 171.7879472741788,149.56217556666095 " style="color: rgb(0, 0, 0);" class=""/><path fill="none" stroke="#000000" stroke-opacity="1" stroke-width="2" stroke-dasharray="none" stroke-linejoin="round" stroke-linecap="butt" stroke-dashoffset="" fill-rule="nonzero" opacity="1" marker-start="" marker-mid="" marker-end="" d="M164.6963511239576,180.18988883102648 C182.50600878524804,168.93985534235065 199.30111674560567,160.07166443781034 206.15949790434476,149.49764881295704 C213.0178790630836,138.9236331881038 186.33201411984655,143.59366013547964 182.41711777974527,144.31089121471422 C178.502221439644,145.02812229394868 171.49100024828238,146.0725605964332 169.77727826094937,146.08540697971392 " style="color: rgb(0, 0, 0);" class="" id="svg_92"/><path fill="none" stroke="#000000" stroke-opacity="1" stroke-width="2" stroke-dasharray="none" stroke-linejoin="round" stroke-linecap="butt" stroke-dashoffset="" fill-rule="nonzero" opacity="1" marker-start="" marker-mid="" marker-end="" d="M172.02061523846905,168.91879710084572 L177.74038743986958,149.03294178380804 " id="svg_1" class=""/><path fill="none" stroke="#000000" stroke-opacity="1" stroke-width="2" stroke-dasharray="none" stroke-linejoin="round" stroke-linecap="butt" stroke-dashoffset="" fill-rule="nonzero" opacity="1" marker-start="" marker-mid="" marker-end="" d="M179.17033049021967,144.0614779545486 L181.07692122401988,135.60998944480752 " id="svg_3" class=""/><path fill="none" stroke="#000000" stroke-opacity="1" stroke-width="2" stroke-dasharray="none" stroke-linejoin="round" stroke-linecap="butt" stroke-dashoffset="" fill-rule="nonzero" opacity="1" marker-start="" marker-mid="" marker-end="" id="svg_20" d="M109.49086794835146,131.12977460691468 C45.88928897765841,135.8400750125635 89.16102799004928,144.43093229642807 111.33841990846031,145.12896931836457 C133.51581778496737,145.82700634030112 181.75130023375058,144.39247802370875 180.84238672427563,137.7611232081468 C179.93347917289685,131.12977460691468 145.0313517447024,131.12977460691468 133.76087427522117,131.4787962250478 " style="color: rgb(0, 0, 0);" class=""/><path fill="none" stroke="#000000" stroke-opacity="1" stroke-width="2" stroke-dasharray="none" stroke-linejoin="round" stroke-linecap="butt" stroke-dashoffset="" fill-rule="nonzero" opacity="1" marker-start="" marker-mid="" marker-end="" d="M177.33756004955907,74.42239297905115 C200.3006817544397,73.22057175611704 168.12461668260295,84.79504159778324 134.54858338183723,92.35476640190271 C100.97254102400917,99.91449120602219 113.05172760168931,99.21126479388442 127.38296176943382,103.0790282267037 C141.71419593717832,106.94679165952292 162.39212120409272,112.2210169996485 146.01356528179545,118.72590218556134 C129.6350093594982,125.23077828844337 102.20093226532839,135.42761576262563 124.31198366613589,127.34046660788742 C146.42303506694338,119.25332653618005 128.81608790332695,125.93401378361193 145.60410455370982,119.78074180376795 C162.39212120409272,113.62747890695479 139.66687418262563,103.60645257732241 120.83153577769002,100.61771761815994 C101.99619737275438,97.62899174202828 194.53503742802758,76.35627923697619 182.04639012226187,74.77400618512004 C169.55774281649607,73.19174221629467 156.86436061815638,72.66431786567597 151.13186513964615,72.66431786567597 " style="color: rgb(0, 0, 0);" class="" id="svg_2"/><path fill="none" fill-opacity="1" stroke="#000000" stroke-opacity="1" stroke-width="6" stroke-dasharray="none" stroke-linejoin="round" stroke-linecap="butt" stroke-dashoffset="" fill-rule="nonzero" opacity="1" marker-start="" marker-mid="" marker-end="" id="svg_5" d="M103.40282875204417,142.4917716518139 C112.21015158531638,143.57724833297604 125.63383188553246,142.90047170658582 130.5664800810084,143.23782455426743 C135.4991373335466,143.57517740194908 145.95750827594847,141.34892654799336 150.03739783061894,141.37624830469957 C154.11726927116484,141.40357914443666 186.99403396538528,140.73268832201774 167.1444404423389,139.06127440569514 C147.2948469192925,137.38986048937252 101.70192151512774,137.2411258596968 90.83245051636965,138.94226853589288 C79.9629795176116,140.6434021290582 96.36831717303606,140.9347766747295 112.25913217806311,141.28586306501083 " style="color: rgb(0, 0, 0);" class=""/></g></g></svg>