<svg xmlns="http://www.w3.org/2000/svg" xmlns:se="http://svg-edit.googlecode.com" xmlns:xlink="http://www.w3.org/1999/xlink" xmlns:dc="http://purl.org/dc/elements/1.1/" xmlns:cc="http://creativecommons.org/ns#" xmlns:rdf="http://www.w3.org/1999/02/22-rdf-syntax-ns#" xmlns:inkscape="http://www.inkscape.org/namespaces/inkscape" width="718.5438611241038" height="458.6315796078077" style="">                                    <title>my vector image</title>                                    <!-- Created with Vector Paint - http://www.vectorpaint.yaks.com/ https://chrome.google.com/webstore/detail/hnbpdiengicdefcjecjbnjnoifekhgdo -->                                    <rect id="backgroundrect" width="60%" height="100%" x="0" y="0" fill="#FFFFFF" stroke="none"/>                                <g class="currentLayer" style=""><title>Layer 1</title><path fill="none" stroke="#000000" stroke-opacity="1" stroke-width="3" stroke-dasharray="none" stroke-linejoin="round" stroke-linecap="butt" stroke-dashoffset="" fill-rule="nonzero" opacity="1" marker-start="" marker-mid="" marker-end="" d="M36.25385091011202,265.32118178115195 C36.25385091011202,256.1962478875042 71.64353098230009,248.80505143364962 115.33449403438419,248.80505143364962 C159.0254570864683,248.80505143364962 194.4151371586563,256.1962478875042 194.4151371586563,265.32118178115195 C194.4151371586563,274.4461156747998 159.0254570864683,281.8373121286544 115.33449403438419,281.8373121286544 C71.64353098230009,281.8373121286544 36.25385091011202,274.4461156747998 36.25385091011202,265.32118178115195 z" id="svg_46" class=""/><path fill="none" fill-opacity="1" stroke="#000000" stroke-opacity="1" stroke-width="5" stroke-dasharray="none" stroke-linejoin="round" stroke-linecap="butt" stroke-dashoffset="" fill-rule="nonzero" opacity="1" marker-start="" marker-mid="" marker-end="" id="svg_66" d="M41.4861047749128,277.8139652531811 C131.88666329714363,290.63808245373366 181.07279929900045,278.2834325883704 187.93771870182445,277.5792315855864 " style="color: rgb(0, 0, 0);" class=""/><path fill="none" fill-opacity="1" stroke="#000000" stroke-opacity="1" stroke-width="5" stroke-dasharray="none" stroke-linejoin="round" stroke-linecap="butt" stroke-dashoffset="" fill-rule="nonzero" opacity="1" marker-start="" marker-mid="" marker-end="" d="M38.09900732192949,280.33375736635827 C132.88020788200026,298.6453089895002 184.44981206780272,281.0041095792441 191.64739262907517,279.99858125991534 " style="color: rgb(0, 0, 0);" class="" id="svg_68"/><path fill="none" fill-opacity="1" stroke="#000000" stroke-opacity="1" stroke-width="5" stroke-dasharray="none" stroke-linejoin="round" stroke-linecap="butt" stroke-dashoffset="" fill-rule="nonzero" opacity="1" marker-start="" marker-mid="" marker-end="" d="M25.57953609041249,278.2647976533761 C134.49827606335907,296.57634927651804 193.75998909959867,278.9351498662619 202.03115891972254,277.92962154693316 " style="color: rgb(0, 0, 0);" class="" id="svg_69"/><path fill="#000000" fill-opacity="1" stroke="#000000" stroke-opacity="1" stroke-width="1" stroke-dasharray="none" stroke-linejoin="round" stroke-linecap="butt" stroke-dashoffset="" fill-rule="nonzero" opacity="1" marker-start="" marker-mid="" marker-end="" d="M77.02804320844109,263.6354933305645 C77.02804320844109,259.13974489234926 100.90457313023268,258.3183026718581 116.68979239126378,258.3183114142322 C132.47501165229494,258.3183114142322 157.80223358337577,259.13974489234926 157.80223358337577,263.6354933305645 C157.80223358337577,268.13123302640554 139.7284447159832,271.7727903104448 117.41513389878207,271.7727903104448 C95.1018230815809,271.7727903104448 77.02804320844109,268.13123302640554 77.02804320844109,263.6354933305645 z" id="svg_11" class=""/><path fill="none" fill-opacity="1" stroke="#000000" stroke-opacity="1" stroke-width="1" stroke-dasharray="none" stroke-linejoin="round" stroke-linecap="butt" stroke-dashoffset="" fill-rule="nonzero" opacity="1" marker-start="" marker-mid="" marker-end="" id="svg_25" d="M157.45327995617765,261.1425831093328 C150.79782866113425,256.62266011816723 136.88999951950257,256.4157297011948 135.71494971935107,256.84544267857984 " style="color: rgb(0, 0, 0);" class="" transform="rotate(1.8494291305541992 146.58412170410526,258.917785644531) "/><path fill="none" fill-opacity="1" stroke="#000000" stroke-opacity="1" stroke-width="1" stroke-dasharray="none" stroke-linejoin="round" stroke-linecap="butt" stroke-dashoffset="" fill-rule="nonzero" opacity="1" marker-start="" marker-mid="" marker-end="" d="M93.65557658475984,267.30715977979185 C90.35703630475467,258.81023605186203 76.4598221774533,243.66597465446137 78.5871845947338,255.05286312774956 " style="color: rgb(0, 0, 0);" class="" id="svg_27" transform="rotate(-63.7083625793457 86.011215209961,259.13720703125006) "/><path fill="#ffffff" fill-opacity="1" stroke="#ffffff" stroke-opacity="1" stroke-width="3" stroke-dasharray="none" stroke-linejoin="round" stroke-linecap="butt" stroke-dashoffset="" fill-rule="nonzero" opacity="1" marker-start="" marker-mid="" marker-end="" d="M72.67964682416914,206.0502127684784 C72.67964682416914,179.5486927684784 94.33354682416916,158.0824727684784 121.06674682416917,158.0824727684784 C147.79995682416916,158.0824727684784 169.45384682416915,179.5486927684784 169.45384682416915,206.0502127684784 C169.45384682416915,232.55173276847836 144.59995682416917,255.6179527684784 117.86674682416918,255.6179527684784 C91.13354682416917,255.6179527684784 72.67964682416914,232.55173276847836 72.67964682416914,206.0502127684784 z" id="svg_30" class=""/><path fill="#000000" fill-opacity="1" stroke="#000000" stroke-opacity="1" stroke-width="3" stroke-dasharray="none" stroke-linejoin="round" stroke-linecap="butt" stroke-dashoffset="" fill-rule="nonzero" opacity="1" marker-start="" marker-mid="" marker-end="" d="M60.30144309063837,207.27196572993472 C59.89091731444421,202.91627695347609 74.09292036080848,259.0024432131697 116.15014416147551,262.13724292820336 C158.20736796214254,265.272042643237 184.1269708335887,194.66819897673665 177.70203818452762,207.21533697957227 C171.27712152385192,219.7624678557089 149.9939905172837,260.56255602094507 118.0184669304341,259.78381449302543 C86.04294334358457,259.0050800918048 60.71196886683248,211.62765450639336 60.30144309063837,207.27196572993472 z" id="svg_43" class=""/><path fill="#000000" fill-opacity="1" stroke="#000000" stroke-opacity="1" stroke-width="3" stroke-dasharray="none" stroke-linejoin="round" stroke-linecap="butt" stroke-dashoffset="" fill-rule="nonzero" opacity="1" marker-start="" marker-mid="" marker-end="" id="svg_80" d="M40.349957879009764,148.80810793144752 L46.112868901260356,173.94030118072817 L51.79213537119449,188.59761914251362 L56.56302638226816,202.33995833553286 L63.221722387572356,214.93865791214103 " style="color: rgb(0, 0, 0);" class="" transform="rotate(-0.7736959457397461 51.78584289551338,181.87338256835923) "/><path fill="none" fill-opacity="1" stroke="#000000" stroke-opacity="1" stroke-width="2" stroke-dasharray="none" stroke-linejoin="round" stroke-linecap="butt" stroke-dashoffset="" fill-rule="nonzero" opacity="1" marker-start="" marker-mid="" marker-end="" id="svg_90" d="M176.7472021150013,197.62601593072316 C191.21376447993902,186.28290985260767 207.15150267859934,178.27601144452612 210.09385434604428,167.266526133414 C213.03620601348916,156.25704082230186 190.47817656307774,162.26221462836304 187.5358248956328,163.59669769637662 C184.5934732281878,164.9311807643902 178.70876989329798,167.266526133414 178.58617190715444,167.266526133414 " style="color: rgb(0, 0, 0);" class="" transform="rotate(6.7237114906311035 193.5525360107415,179.19462585449236) "/><path fill="none" fill-opacity="1" stroke="#000000" stroke-opacity="1" stroke-width="3" stroke-dasharray="none" stroke-linejoin="round" stroke-linecap="butt" stroke-dashoffset="" fill-rule="nonzero" opacity="1" marker-start="" marker-mid="" marker-end="" d="M170.31613451492836,213.37326990730276 C193.610709305078,194.18597959371652 215.78590791045656,178.67712946715852 224.01210652561917,162.01904803850374 C232.23830514078145,145.36096660984904 195.8804596795178,156.01295708833274 190.55048595588937,157.62334165853153 C185.2205122322614,159.23372622873026 175.6463876226412,161.76128329065602 173.27731279900678,162.01904803850374 " style="color: rgb(0, 0, 0);" class="" transform="rotate(5.138306140899658 197.7671966552734,183.08065795898418) " id="svg_92"/><path fill="#000000" fill-opacity="1" stroke="#000000" stroke-opacity="1" stroke-width="3" stroke-dasharray="none" stroke-linejoin="round" stroke-linecap="butt" stroke-dashoffset="" fill-rule="nonzero" opacity="1" marker-start="" marker-mid="" marker-end="" d="M188.6086883544922,189.0502152473695 L194.33771057128905,161.56634378740856 " id="svg_1" class="" transform="rotate(6.106600761413574 191.47319030761736,175.30828857421866) "/><path fill="#000000" fill-opacity="1" stroke="#000000" stroke-opacity="1" stroke-width="3" stroke-dasharray="none" stroke-linejoin="round" stroke-linecap="butt" stroke-dashoffset="" fill-rule="nonzero" opacity="1" marker-start="" marker-mid="" marker-end="" d="M197.3829433514116,154.85955096747074 L199.81574341312898,147.71116145637922 " id="svg_3" class="" transform="rotate(-4.279181957244873 198.5993194580081,151.28536987304676) "/><path fill="none" fill-opacity="1" stroke="#000000" stroke-opacity="1" stroke-width="3" stroke-dasharray="none" stroke-linejoin="round" stroke-linecap="butt" stroke-dashoffset="" fill-rule="nonzero" opacity="1" marker-start="" marker-mid="" marker-end="" id="svg_20" d="M91.2022915825579,141.1439474420436 C-6.523589051435465,146.36280098422287 59.96483576422514,155.88118030297812 94.04111485142516,156.65458171494262 C128.11740309343213,157.42798312690712 202.23278004476475,155.8385742693688 200.83620507648453,148.4912574130726 C199.4396392630115,141.1439474420436 145.81139301315284,141.1439474420436 128.49394030685818,141.5306515906595 " style="color: rgb(0, 0, 0);" class=""/><path fill="#000000" fill-opacity="1" stroke="#000000" stroke-opacity="1" stroke-width="3" stroke-dasharray="none" stroke-linejoin="round" stroke-linecap="butt" stroke-dashoffset="" fill-rule="nonzero" opacity="1" marker-start="" marker-mid="" marker-end="" d="M52.918367456725605,150.02939278994393 C52.918367456725605,148.522589305878 83.58945489555487,147.55973697200852 115.2316943633856,147.1482022596859 C146.87393383121633,146.73666754736325 188.8667598590365,148.11105459355542 188.8667598590365,149.6178580776213 C188.8667598590365,151.12466156168716 160.20364022143718,155.27601797224162 123.2038286392297,155.27601797224162 C86.20401705702221,155.27601797224162 52.918367456725605,151.5361962740098 52.918367456725605,150.02939278994393 z" id="svg_22" class=""/><path fill="#000000" fill-opacity="1" stroke="#000000" stroke-opacity="1" stroke-width="3" stroke-dasharray="none" stroke-linejoin="round" stroke-linecap="butt" stroke-dashoffset="" fill-rule="nonzero" opacity="1" marker-start="" marker-mid="" marker-end="" id="svg_45" d="M193.00298811190993,56.79225010066003 C227.43646816098544,54.99275953221003 179.1880776814661,72.32319733074624 128.84040411273742,83.64236226114804 C78.49273054400862,94.96152719154983 96.60561310836835,93.90858161662874 118.09547377794769,99.69978227869481 C139.5853344475271,105.49098294076083 170.59213341363437,113.38807475266907 146.03229264840093,123.12782132068926 C121.47245188316737,132.86756788870943 80.33471860140116,148.13527872506535 113.49050363446634,136.0264046134727 C146.64628866753173,123.91753050188004 120.24445984490563,133.9205134636305 145.41829662927,124.7072396830709 C170.59213341363437,115.49396590251126 136.51535435187293,100.48949145988558 108.27153747185429,96.01447276647093 C80.02772059183576,91.53945407305625 218.79082091540516,59.68785043169305 200.06394233191457,57.318722888120575 C181.33706374842404,54.9495953445481 162.30318715536805,54.159886163357285 153.70724288753638,54.159886163357285 " style="color: rgb(0, 0, 0);" class=""/></g></svg>